<?xml version="1.0" standalone="no"?>
<!DOCTYPE svg PUBLIC "-//W3C//DTD SVG 20010904//EN"
 "http://www.w3.org/TR/2001/REC-SVG-20010904/DTD/svg10.dtd">
<svg version="1.0" xmlns="http://www.w3.org/2000/svg"
 width="225.000000pt" height="225.000000pt" viewBox="0 0 225.000000 225.000000"
 preserveAspectRatio="xMidYMid meet">
<metadata>
Created by potrace 1.16, written by Peter Selinger 2001-2019
</metadata>
<g transform="translate(0.000000,225.000000) scale(0.100000,-0.100000)"
fill="#000000" stroke="none">
<path d="M1046 1892 c-10 -29 -47 -57 -93 -71 -23 -6 -63 -27 -87 -46 l-46
-35 -21 50 c-12 28 -25 50 -30 50 -11 0 -11 -91 0 -149 8 -40 6 -47 -24 -87
-18 -24 -41 -67 -51 -96 -23 -69 -24 -201 -2 -245 9 -18 12 -33 7 -33 -5 0
-18 20 -29 45 -11 25 -24 45 -29 45 -6 0 -24 20 -41 45 -38 55 -52 58 -34 8 7
-21 13 -47 14 -58 0 -11 15 -47 33 -80 29 -55 35 -60 69 -63 l36 -3 -5 -58
c-6 -65 9 -106 53 -140 l27 -21 -31 0 c-34 0 -50 -15 -26 -24 25 -10 102 -7
109 4 3 6 16 10 28 10 20 1 56 12 112 36 17 7 16 2 -8 -39 -15 -26 -25 -47
-22 -47 17 0 87 54 95 73 23 55 31 58 101 38 133 -38 222 -104 249 -186 16
-49 8 -170 -13 -210 l-16 -30 -2 45 c-1 25 0 56 1 70 1 16 -2 21 -7 15 -15
-16 -45 -105 -45 -130 l0 -24 -40 26 c-66 44 -140 32 -229 -38 l-36 -29 14 67
c7 37 12 74 11 81 -4 21 -64 -66 -88 -129 -12 -30 -23 -55 -25 -57 -4 -5 -65
27 -98 52 -46 34 -99 122 -132 219 -17 51 -35 92 -40 92 -6 0 -11 -81 -13
-198 -2 -188 -2 -197 17 -197 10 0 21 7 25 15 7 19 26 20 26 1 0 -26 51 -76
91 -87 35 -11 43 -10 88 13 l49 26 12 -23 c12 -22 90 -52 90 -35 0 8 -32 36
-65 55 -11 7 22 10 112 10 119 1 133 3 193 29 69 30 76 31 155 21 43 -6 55 -3
85 17 19 13 44 40 55 61 11 21 32 41 47 46 20 7 25 14 21 30 -6 24 -14 26 -31
9 -9 -9 -13 -7 -17 8 -3 10 -12 31 -20 47 -14 26 -13 27 13 27 50 0 70 11 85
48 20 48 29 92 20 92 -15 0 -90 -55 -114 -83 l-24 -28 3 91 c3 83 1 97 -23
146 -29 60 -94 122 -159 153 -24 11 -124 45 -222 76 -99 31 -197 65 -219 75
-39 18 -39 18 -12 19 16 1 57 17 92 36 56 32 65 41 87 93 14 32 33 64 42 71
30 25 16 30 -36 14 -79 -23 -108 -40 -158 -91 l-44 -47 -9 77 c-8 71 -7 81 12
107 25 34 26 45 6 37 -8 -3 -15 -1 -15 4 0 6 -4 10 -8 10 -5 0 -13 -21 -18
-47 l-9 -48 -27 45 -28 45 46 42 c54 50 120 73 211 73 61 0 63 -1 58 -23 -7
-27 6 -62 35 -97 l22 -25 -5 35 c-3 19 -8 44 -12 55 -4 11 2 7 13 -10 10 -16
29 -39 41 -49 11 -11 21 -25 21 -32 0 -15 61 -64 78 -64 18 0 14 12 -15 42
l-27 28 33 0 c29 0 34 -5 57 -56 14 -31 28 -73 32 -93 5 -22 14 -37 25 -39 15
-3 17 12 17 167 0 157 -1 171 -18 171 -9 0 -23 -9 -30 -20 -16 -26 -53 -25
-119 3 l-53 23 60 53 c33 29 60 56 60 61 0 23 -176 -23 -193 -51 -11 -18 -12
-18 -34 3 -12 12 -40 24 -60 28 l-38 7 28 11 c15 6 27 16 27 22 0 6 -6 8 -12
4 -10 -6 -10 -4 0 7 14 15 16 29 3 29 -5 0 -12 -8 -15 -18z m-189 -791 c22
-11 74 -32 115 -46 68 -24 70 -26 28 -22 -25 3 -53 8 -62 12 -11 4 -18 3 -18
-3 0 -6 8 -12 18 -15 12 -3 8 -6 -13 -11 -55 -14 -62 -18 -40 -25 37 -11 28
-31 -15 -31 l-40 0 0 45 c0 38 -5 49 -37 81 l-38 36 -3 -26 c-2 -14 6 -47 18
-73 l21 -48 -27 26 c-30 31 -42 97 -25 142 l11 28 32 -24 c18 -14 52 -34 75
-46z m422 -551 c23 -17 40 -34 37 -38 -2 -4 -26 -19 -53 -32 -41 -21 -63 -25
-153 -27 -107 -2 -113 1 -27 12 26 3 47 11 47 16 0 7 -12 8 -32 3 -29 -6 -31
-5 -19 9 7 9 21 19 32 22 10 4 19 11 19 16 0 18 -23 8 -61 -26 -22 -19 -46
-35 -55 -35 -19 0 65 72 110 94 51 26 107 20 155 -14z"/>
</g>
</svg>
