<svg version="1.1" id="Layer_1" xmlns="http://www.w3.org/2000/svg" xmlns:xlink="http://www.w3.org/1999/xlink" x="0px" y="0px"
	 width="100%" viewBox="0 0 598 84" enable-background="new 0 0 598 84" xml:space="preserve">
<path fill="#F9B91E" opacity="1.000000" stroke="none" 
	d="
M599.000000,35.000000 
	C599.000000,51.656231 599.000000,68.312462 599.000000,84.953033 
	C399.666656,84.953033 200.333328,84.953033 1.000000,84.953033 
	C1.000000,68.249809 1.000000,51.593563 1.467882,34.470253 
	C8.024070,33.665245 14.147709,33.630604 20.193333,32.926300 
	C32.821682,31.455116 45.532181,30.256578 57.983967,27.803915 
	C76.549751,24.146959 94.885262,19.337248 113.387268,15.334748 
	C126.716446,12.451275 140.171204,10.313130 153.859085,12.993298 
	C170.960648,16.341877 188.040192,19.807270 205.166840,23.022011 
	C225.257111,26.793039 245.277634,31.278864 265.538757,33.678490 
	C279.574677,35.340839 293.975037,34.290470 308.195496,33.872269 
	C314.998291,33.672215 321.801147,32.345970 328.532440,31.132786 
	C336.809631,29.640984 345.095428,28.053797 353.226929,25.931049 
	C364.769623,22.917799 376.231018,19.558687 387.624451,16.016979 
	C401.021210,11.852523 414.314117,7.352590 427.623169,2.911629 
	C428.227448,2.709986 428.547546,1.656646 429.000000,1.000001 
	C436.687592,1.000000 444.375153,1.000000 452.203552,1.208776 
	C452.519440,1.698848 452.636139,2.156061 452.877899,2.236261 
	C466.251770,6.672832 479.737427,10.794869 492.999725,15.541221 
	C527.293091,27.814249 562.479309,34.979092 599.000000,35.000000 
z"/>
<path fill="#000000" opacity="1.000000" stroke="none" 
	d="
M428.531342,1.000001 
	C428.547546,1.656646 428.227448,2.709986 427.623169,2.911629 
	C414.314117,7.352590 401.021210,11.852523 387.624451,16.016979 
	C376.231018,19.558687 364.769623,22.917799 353.226929,25.931049 
	C345.095428,28.053797 336.809631,29.640984 328.532440,31.132786 
	C321.801147,32.345970 314.998291,33.672215 308.195496,33.872269 
	C293.975037,34.290470 279.574677,35.340839 265.538757,33.678490 
	C245.277634,31.278864 225.257111,26.793039 205.166840,23.022011 
	C188.040192,19.807270 170.960648,16.341877 153.859085,12.993298 
	C140.171204,10.313130 126.716446,12.451275 113.387268,15.334748 
	C94.885262,19.337248 76.549751,24.146959 57.983967,27.803915 
	C45.532181,30.256578 32.821682,31.455116 20.193333,32.926300 
	C14.147709,33.630604 8.024070,33.665245 1.467882,34.001595 
	C1.000000,23.010447 1.000000,12.020893 1.000000,1.000000 
	C143.354233,1.000000 285.708466,1.000000 428.531342,1.000001 
z"/>
<path fill="#000000" opacity="1.000000" stroke="none" 
	d="
M599.000000,34.531342 
	C562.479309,34.979092 527.293091,27.814249 492.999725,15.541221 
	C479.737427,10.794869 466.251770,6.672832 452.877899,2.236261 
	C452.636139,2.156061 452.519440,1.698848 452.672180,1.208776 
	C501.548126,1.000000 550.096252,1.000000 599.000000,1.000000 
	C599.000000,12.018344 599.000000,23.040514 599.000000,34.531342 
z"/>
</svg>